<svg width="512" height="512" viewBox="0 0 512 512" fill="none" xmlns="http://www.w3.org/2000/svg">
<g clip-path="url(#clip0_2_48)">
<path d="M256 149.333C197.12 149.333 149.333 197.12 149.333 256C149.333 314.88 197.12 362.667 256 362.667C314.88 362.667 362.667 314.88 362.667 256C362.667 197.12 314.88 149.333 256 149.333ZM256 42.6666C138.24 42.6666 42.6667 138.24 42.6667 256C42.6667 373.76 138.24 469.333 256 469.333C373.76 469.333 469.333 373.76 469.333 256C469.333 138.24 373.76 42.6666 256 42.6666ZM256 426.667C161.707 426.667 85.3334 350.293 85.3334 256C85.3334 161.707 161.707 85.3333 256 85.3333C350.293 85.3333 426.667 161.707 426.667 256C426.667 350.293 350.293 426.667 256 426.667Z" fill="url(#paint0_linear_2_48)"/>
</g>
<defs>
<linearGradient id="paint0_linear_2_48" x1="43" y1="43" x2="469" y2="469" gradientUnits="userSpaceOnUse">
<stop stop-color="#FFAC2F"/>
<stop offset="1" stop-color="#FF6086"/>
</linearGradient>
<clipPath id="clip0_2_48">
<rect width="512" height="512" fill="white"/>
</clipPath>
</defs>
</svg>
